# xmcd
#
# Track frame offsets: 
#        150
#        24251
#        41077
#        58268
#        77131
#        103529
#        121572
#        144920
#        165815
#        185281
#
# Disc length: 2744 seconds
#
# Revision: 0
# Processed by: cddbd v1.5.2PL0 Copyright (c) Steve Scherf et al.
# Submitted via: ExactAudioCopyFreeDBPlugin 1.0
#
DISCID=6f0ab60a
DTITLE=Lupeux - Waltz
DYEAR=2012
DGENRE=Ambient
TTITLE0=Alicorn
TTITLE1=Pegasus
TTITLE2=Lylr
TTITLE3=Follet
TTITLE4=Taweret
TTITLE5=Lostrock
TTITLE6=Allegory
TTITLE7=Ghost
TTITLE8=Waltz
TTITLE9=Harmonia
EXTD=
EXTT0=
EXTT1=
EXTT2=
EXTT3=
EXTT4=
EXTT5=
EXTT6=
EXTT7=
EXTT8=
EXTT9=
PLAYORDER=
